<svg id="Camada_1" data-name="Camada 1" xmlns="http://www.w3.org/2000/svg" viewBox="0 0 253 44"><defs><style>.cls-1{fill:#c92071;}</style></defs><path class="cls-1" d="M5,5.05A5.88,5.88,0,0,0,1.75,6.72,5.23,5.23,0,0,0,.45,8.65C0,9.74,0,9.05,0,21.45,0,33.59,0,33.11.38,34.14a5.75,5.75,0,0,0,1.26,2,6,6,0,0,0,2.91,1.71l.57.15,11,0c7.8,0,11.15,0,11.63-.06a6,6,0,0,0,5.1-4.18l.2-.58V9.87l-.16-.54a6.05,6.05,0,0,0-4.1-4.13L28.12,5H16.72C10.45,5,5.16,5,5,5.05Zm7.32,12.36c2.31,2.22,4.19,4.06,4.18,4.09s-1.92,1.87-4.23,4.1L8,29.65l-1.09-1a13.78,13.78,0,0,1-1.09-1.11s1.4-1.4,3.1-3,3.07-3,3.08-3-1.39-1.38-3.09-3-3.09-3-3.09-3A25.49,25.49,0,0,1,8,13.35C8.06,13.36,10,15.19,12.29,17.41Zm15,11v1.27h-8V27.11h8Z"/><path class="cls-1" d="M52.58,35h-9V8.53h9.15a13.59,13.59,0,0,1,6.77,1.59,10.53,10.53,0,0,1,4.37,4.54,15.23,15.23,0,0,1,1.53,7.08,15.35,15.35,0,0,1-1.54,7.11,10.67,10.67,0,0,1-4.41,4.56A14,14,0,0,1,52.58,35Zm-4.17-4.15h3.94a9.44,9.44,0,0,0,4.61-1,6.46,6.46,0,0,0,2.78-3,12.21,12.21,0,0,0,.93-5.07,11.94,11.94,0,0,0-.93-5,6.32,6.32,0,0,0-2.75-3,9.19,9.19,0,0,0-4.5-1H48.41Zm21,4.15V15.15h4.68V35Zm2.35-22.67a2.7,2.7,0,0,1-1.91-.74,2.41,2.41,0,0,1,0-3.59,2.82,2.82,0,0,1,3.83,0,2.41,2.41,0,0,1,0,3.59A2.69,2.69,0,0,1,71.76,12.33ZM87.17,42.86a12.18,12.18,0,0,1-4.33-.69,7.81,7.81,0,0,1-2.91-1.81,6.12,6.12,0,0,1-1.52-2.52l4.21-1A4.68,4.68,0,0,0,83.45,38a4,4,0,0,0,1.46,1,6.08,6.08,0,0,0,2.34.39,5.39,5.39,0,0,0,3.29-1,3.63,3.63,0,0,0,1.31-3.16V31.43h-.23a6.66,6.66,0,0,1-1.06,1.49,5.59,5.59,0,0,1-1.82,1.28,6.9,6.9,0,0,1-2.84.52,8.09,8.09,0,0,1-4.14-1.08,7.61,7.61,0,0,1-3-3.23A12,12,0,0,1,77.72,25a12.69,12.69,0,0,1,1.09-5.52,8,8,0,0,1,3-3.42,7.55,7.55,0,0,1,4.15-1.18,6.21,6.21,0,0,1,2.87.59,5.59,5.59,0,0,1,1.81,1.41,8.86,8.86,0,0,1,1,1.54h.26V15.15h4.61V35.32a7.07,7.07,0,0,1-1.21,4.22A7.28,7.28,0,0,1,92,42,13,13,0,0,1,87.17,42.86Zm0-11.81a4.34,4.34,0,0,0,2.53-.73,4.39,4.39,0,0,0,1.59-2.08A8.78,8.78,0,0,0,91.88,25a9.12,9.12,0,0,0-.55-3.28,4.65,4.65,0,0,0-1.57-2.18,4.06,4.06,0,0,0-2.55-.79,4.15,4.15,0,0,0-2.61.81A5,5,0,0,0,83,21.78a9.14,9.14,0,0,0-.53,3.2,8.94,8.94,0,0,0,.53,3.2,4.72,4.72,0,0,0,1.59,2.12A4.39,4.39,0,0,0,87.21,31.05ZM100.92,35V15.15h4.68V35Zm2.35-22.67a2.68,2.68,0,0,1-1.91-.74,2.41,2.41,0,0,1,0-3.59,2.82,2.82,0,0,1,3.83,0,2.41,2.41,0,0,1,0,3.59A2.69,2.69,0,0,1,103.27,12.33ZM120,15.15v3.62H108.55V15.15Zm-8.6-4.76H116V29a3,3,0,0,0,.29,1.45,1.6,1.6,0,0,0,.77.67,3,3,0,0,0,1.06.18,3.91,3.91,0,0,0,.8-.07l.57-.11.79,3.66c-.25.08-.61.18-1.07.28a9.39,9.39,0,0,1-1.68.18,7.53,7.53,0,0,1-3.17-.53,4.89,4.89,0,0,1-2.23-1.83,5.49,5.49,0,0,1-.81-3.11Zm17.86,25a8.25,8.25,0,0,1-3.4-.67,5.59,5.59,0,0,1-2.38-2,6,6,0,0,1-.86-3.28,5.63,5.63,0,0,1,.62-2.78,4.83,4.83,0,0,1,1.69-1.76,8.43,8.43,0,0,1,2.42-1,21,21,0,0,1,2.8-.51c1.17-.12,2.11-.22,2.83-.32a4.27,4.27,0,0,0,1.58-.46,1.1,1.1,0,0,0,.5-1v-.08a2.93,2.93,0,0,0-.86-2.26,3.57,3.57,0,0,0-2.5-.8,4.46,4.46,0,0,0-2.72.75A3.68,3.68,0,0,0,127.59,21l-4.37-.62a7,7,0,0,1,1.71-3,7.32,7.32,0,0,1,2.91-1.84,11.18,11.18,0,0,1,3.8-.62,12,12,0,0,1,2.85.34,7.84,7.84,0,0,1,2.6,1.11A5.51,5.51,0,0,1,139,18.42a6.81,6.81,0,0,1,.72,3.29V35h-4.49V32.27h-.16a5.54,5.54,0,0,1-1.2,1.55A5.63,5.63,0,0,1,131.92,35,7.57,7.57,0,0,1,129.22,35.4ZM130.44,32a5.08,5.08,0,0,0,2.44-.55,4.11,4.11,0,0,0,1.59-1.5,3.82,3.82,0,0,0,.57-2V25.54a2.42,2.42,0,0,1-.75.34q-.53.15-1.17.27l-1.27.2-1.1.16a8.22,8.22,0,0,0-1.88.46,3.14,3.14,0,0,0-1.3.91A2.49,2.49,0,0,0,128,31.3,4.11,4.11,0,0,0,130.44,32ZM148.72,8.53V35H144V8.53Zm27.71,7.28a3.56,3.56,0,0,0-1.53-2.64,5.85,5.85,0,0,0-3.46-.94,6.69,6.69,0,0,0-2.58.45,3.81,3.81,0,0,0-1.64,1.23,3,3,0,0,0-.58,1.77,2.65,2.65,0,0,0,.38,1.43,3.33,3.33,0,0,0,1,1,7.27,7.27,0,0,0,1.46.69,16.55,16.55,0,0,0,1.62.48l2.48.62a17.35,17.35,0,0,1,2.88.95,9.94,9.94,0,0,1,2.5,1.5,6.39,6.39,0,0,1,2.4,5.18,7.21,7.21,0,0,1-1.19,4.1,7.83,7.83,0,0,1-3.44,2.75,13.48,13.48,0,0,1-5.41,1,13.77,13.77,0,0,1-5.37-1,8,8,0,0,1-3.54-2.79,8.3,8.3,0,0,1-1.37-4.47h4.72a4,4,0,0,0,.85,2.3,4.52,4.52,0,0,0,1.95,1.37,7.8,7.8,0,0,0,2.72.45,7.46,7.46,0,0,0,2.74-.46,4.48,4.48,0,0,0,1.86-1.32,3.12,3.12,0,0,0,.68-2,2.53,2.53,0,0,0-.6-1.71,4.5,4.5,0,0,0-1.67-1.13,16,16,0,0,0-2.48-.83l-3-.78a12.16,12.16,0,0,1-5.17-2.54A5.88,5.88,0,0,1,161.78,16a6.79,6.79,0,0,1,1.27-4.1,8.41,8.41,0,0,1,3.47-2.73,12.19,12.19,0,0,1,5-1,11.74,11.74,0,0,1,4.94,1,8.13,8.13,0,0,1,3.35,2.7,7,7,0,0,1,1.25,4ZM195,15.15v3.62H183.6V15.15Zm-8.6-4.76h4.68V29a3,3,0,0,0,.29,1.45,1.51,1.51,0,0,0,.77.67,3,3,0,0,0,1.06.18,4,4,0,0,0,.8-.07l.57-.11.79,3.66c-.25.08-.61.18-1.07.28a9.39,9.39,0,0,1-1.68.18,7.53,7.53,0,0,1-3.17-.53,4.92,4.92,0,0,1-2.24-1.83,5.49,5.49,0,0,1-.8-3.11Zm20.59,25a9.63,9.63,0,0,1-5-1.28,8.75,8.75,0,0,1-3.31-3.58,11.87,11.87,0,0,1-1.16-5.38,11.92,11.92,0,0,1,1.16-5.39A8.71,8.71,0,0,1,202,16.17a10.56,10.56,0,0,1,10.08,0,8.56,8.56,0,0,1,3.3,3.59,11.79,11.79,0,0,1,1.17,5.39,11.75,11.75,0,0,1-1.17,5.38,8.59,8.59,0,0,1-3.3,3.58A9.63,9.63,0,0,1,207,35.39Zm0-3.75a4,4,0,0,0,2.64-.87,5.2,5.2,0,0,0,1.57-2.35,10.48,10.48,0,0,0,0-6.58,5.18,5.18,0,0,0-1.57-2.36A4,4,0,0,0,207,18.6a4.09,4.09,0,0,0-2.69.88,5.21,5.21,0,0,0-1.59,2.36,10.67,10.67,0,0,0,0,6.58,5.23,5.23,0,0,0,1.59,2.35A4.14,4.14,0,0,0,207,31.64ZM220.13,35V15.15h4.54v3.31h.21a4.92,4.92,0,0,1,1.86-2.65,5.1,5.1,0,0,1,3-1c.26,0,.55,0,.87,0a6.61,6.61,0,0,1,.81.09V19.3a4.57,4.57,0,0,0-.94-.18,8.69,8.69,0,0,0-1.23-.09,4.74,4.74,0,0,0-2.3.55,4.12,4.12,0,0,0-1.59,1.51,4.25,4.25,0,0,0-.58,2.24V35Zm22,.39A10.32,10.32,0,0,1,237,34.15a8.47,8.47,0,0,1-3.32-3.54,11.83,11.83,0,0,1-1.16-5.42,11.8,11.8,0,0,1,1.16-5.38A8.92,8.92,0,0,1,237,16.19a9.23,9.23,0,0,1,4.95-1.3,10.2,10.2,0,0,1,3.47.59,7.94,7.94,0,0,1,2.89,1.81,8.38,8.38,0,0,1,2,3.13,12.41,12.41,0,0,1,.73,4.5v1.43H234.73V23.2h11.78a5,5,0,0,0-.58-2.39,4.26,4.26,0,0,0-1.59-1.67,4.52,4.52,0,0,0-2.35-.61,4.58,4.58,0,0,0-2.52.7,4.84,4.84,0,0,0-1.7,1.81,5.3,5.3,0,0,0-.6,2.44v2.76a6.51,6.51,0,0,0,.63,3,4.49,4.49,0,0,0,1.77,1.89,5.32,5.32,0,0,0,2.66.64,5.66,5.66,0,0,0,1.85-.28,4.21,4.21,0,0,0,1.44-.87,3.58,3.58,0,0,0,.91-1.41l4.37.5a6.8,6.8,0,0,1-1.57,3,7.7,7.7,0,0,1-2.95,2A11.21,11.21,0,0,1,242.17,35.39Z"/></svg>