<svg id="Camada_1" data-name="Camada 1" xmlns="http://www.w3.org/2000/svg" viewBox="0 0 33 33"><defs><style>.cls-1{fill:none;stroke:#c92071;stroke-linecap:round;stroke-linejoin:round;stroke-width:1.5px;}.cls-2{fill:#ee4266;}.cls-3{fill:#fff;}</style></defs><path class="cls-1" d="M6.42,28.77a.77.77,0,1,1,0,1.53.77.77,0,0,1,0-1.53Z"/><path class="cls-1" d="M17.67,28.77a.77.77,0,1,1-.76.77A.76.76,0,0,1,17.67,28.77Z"/><path class="cls-1" d="M1.75,12.2l2.08.36L4.79,24a1.81,1.81,0,0,0,1.8,1.66H17.5a1.81,1.81,0,0,0,1.79-1.55l.95-6.56a1.34,1.34,0,0,0-1.33-1.53H4.16"/><path class="cls-1" d="M13.13,19.75H15.9"/><circle class="cls-2" cx="23.5" cy="12.45" r="8.5"/><path class="cls-3" d="M20.71,17V15.62l3.1-2.88a8.37,8.37,0,0,0,.67-.69,2.38,2.38,0,0,0,.41-.6,1.39,1.39,0,0,0,.14-.64,1.24,1.24,0,0,0-.17-.66,1.17,1.17,0,0,0-.48-.43,1.52,1.52,0,0,0-.69-.15,1.38,1.38,0,0,0-.69.16,1.08,1.08,0,0,0-.46.46,1.47,1.47,0,0,0-.17.72H20.62A2.81,2.81,0,0,1,21,9.42a2.57,2.57,0,0,1,1.09-1,3.57,3.57,0,0,1,1.61-.35,3.62,3.62,0,0,1,1.63.34,2.51,2.51,0,0,1,1.09.91,2.42,2.42,0,0,1,.38,1.34,2.54,2.54,0,0,1-.19,1,4.14,4.14,0,0,1-.69,1.07,14.92,14.92,0,0,1-1.39,1.4l-1.28,1.25v.06h3.67V17Z"/></svg>