<svg id="Camada_1" data-name="Camada 1" xmlns="http://www.w3.org/2000/svg" viewBox="0 0 253 54"><defs><style>.cls-1{fill:#c92071;}</style></defs><path class="cls-1" d="M6.16,8.24A5.93,5.93,0,0,0,2.94,9.92a5.21,5.21,0,0,0-1.31,1.93c-.47,1.09-.45.39-.45,12.79,0,12.14,0,11.66.38,12.69a5.63,5.63,0,0,0,1.27,2A5.77,5.77,0,0,0,5.73,41l.57.15,11,0c7.79,0,11.15,0,11.63-.06A6,6,0,0,0,34,37l.19-.58V13.07L34,12.53a6.09,6.09,0,0,0-4.1-4.14l-.62-.19H17.91C11.64,8.19,6.35,8.21,6.16,8.24ZM13.47,20.6c2.32,2.22,4.19,4.07,4.18,4.09s-1.91,1.87-4.23,4.1L9.21,32.84l-1.1-1.05A11.27,11.27,0,0,1,7,30.68s1.39-1.4,3.09-3,3.08-3,3.08-3-1.38-1.39-3.09-3-3.09-3-3.09-3a25.49,25.49,0,0,1,2.17-2.12C9.24,16.56,11.16,18.38,13.47,20.6Zm15,11v1.27h-8V30.31h8Z"/><path class="cls-1" d="M53.76,38.19h-9V11.73H54a13.64,13.64,0,0,1,6.77,1.59,10.68,10.68,0,0,1,4.37,4.53,15.38,15.38,0,0,1,1.52,7.08A15.23,15.23,0,0,1,65.07,32a10.53,10.53,0,0,1-4.4,4.56A14.09,14.09,0,0,1,53.76,38.19Zm-4.17-4.14h3.94a9.6,9.6,0,0,0,4.62-1,6.46,6.46,0,0,0,2.77-3,12,12,0,0,0,.94-5.07,11.84,11.84,0,0,0-.94-5,6.36,6.36,0,0,0-2.75-3,9.13,9.13,0,0,0-4.5-1H49.59Zm21,4.14V18.34h4.68V38.19ZM73,15.53A2.72,2.72,0,0,1,71,14.79a2.37,2.37,0,0,1-.81-1.8A2.33,2.33,0,0,1,71,11.2,2.69,2.69,0,0,1,73,10.45a2.66,2.66,0,0,1,1.91.75,2.32,2.32,0,0,1,.8,1.79,2.36,2.36,0,0,1-.8,1.8A2.69,2.69,0,0,1,73,15.53ZM88.36,46.05A12.38,12.38,0,0,1,84,45.37a7.65,7.65,0,0,1-2.91-1.81A6.39,6.39,0,0,1,79.59,41l4.22-1a4.82,4.82,0,0,0,.82,1.15,4.25,4.25,0,0,0,1.46.95,6.08,6.08,0,0,0,2.34.39,5.36,5.36,0,0,0,3.3-1A3.65,3.65,0,0,0,93,38.39V34.63H92.8a6.31,6.31,0,0,1-1.06,1.48,5.25,5.25,0,0,1-1.82,1.28,6.69,6.69,0,0,1-2.83.52,8.2,8.2,0,0,1-4.15-1.07,7.8,7.8,0,0,1-3-3.23,12,12,0,0,1-1.08-5.41A12.62,12.62,0,0,1,80,22.69a8.15,8.15,0,0,1,3-3.43,7.66,7.66,0,0,1,4.15-1.18,6,6,0,0,1,2.87.6,5.59,5.59,0,0,1,1.81,1.41,7.3,7.3,0,0,1,1,1.54h.26V18.34h4.61V38.52a7,7,0,0,1-1.21,4.21,7.39,7.39,0,0,1-3.32,2.5A13.06,13.06,0,0,1,88.36,46.05Zm0-11.81a4.37,4.37,0,0,0,2.54-.72,4.49,4.49,0,0,0,1.59-2.08,8.87,8.87,0,0,0,.54-3.26,9.09,9.09,0,0,0-.54-3.28,4.75,4.75,0,0,0-1.58-2.19,4.54,4.54,0,0,0-5.16,0A5,5,0,0,0,84.21,25a8.93,8.93,0,0,0-.53,3.21,8.67,8.67,0,0,0,.53,3.19,4.66,4.66,0,0,0,1.59,2.12A4.36,4.36,0,0,0,88.39,34.24Zm13.72,3.95V18.34h4.67V38.19Zm2.35-22.66a2.77,2.77,0,0,1-1.92-.74,2.39,2.39,0,0,1-.8-1.8,2.36,2.36,0,0,1,.8-1.79,2.73,2.73,0,0,1,1.92-.75,2.67,2.67,0,0,1,1.91.75,2.36,2.36,0,0,1,.8,1.79,2.39,2.39,0,0,1-.8,1.8A2.71,2.71,0,0,1,104.46,15.53Zm16.68,2.81V22H109.73V18.34Zm-8.59-4.75h4.68V32.22a3,3,0,0,0,.28,1.45,1.53,1.53,0,0,0,.78.67,3,3,0,0,0,1.06.18,4.92,4.92,0,0,0,.8-.06,4.48,4.48,0,0,0,.57-.12l.79,3.66a10.82,10.82,0,0,1-1.08.29,9.18,9.18,0,0,1-1.68.18,7.81,7.81,0,0,1-3.16-.53,4.94,4.94,0,0,1-2.24-1.84,5.48,5.48,0,0,1-.8-3.1Zm17.86,25a8.22,8.22,0,0,1-3.4-.68,5.51,5.51,0,0,1-2.38-2,5.89,5.89,0,0,1-.87-3.29,5.59,5.59,0,0,1,.62-2.77,4.78,4.78,0,0,1,1.7-1.76,8.67,8.67,0,0,1,2.41-1,19.63,19.63,0,0,1,2.81-.5c1.16-.12,2.1-.23,2.83-.32a4.18,4.18,0,0,0,1.57-.47,1.11,1.11,0,0,0,.51-1v-.07a2.9,2.9,0,0,0-.87-2.26,3.5,3.5,0,0,0-2.49-.81,4.47,4.47,0,0,0-2.73.75,3.72,3.72,0,0,0-1.34,1.77l-4.37-.62a7,7,0,0,1,1.7-3A7.58,7.58,0,0,1,129,18.7a11.26,11.26,0,0,1,3.8-.62,12.63,12.63,0,0,1,2.86.34,7.93,7.93,0,0,1,2.6,1.11,5.57,5.57,0,0,1,1.88,2.08,6.71,6.71,0,0,1,.73,3.3V38.19h-4.5V35.47h-.16A5.54,5.54,0,0,1,135,37a5.84,5.84,0,0,1-1.92,1.15A7.88,7.88,0,0,1,130.41,38.6Zm1.21-3.44a5.08,5.08,0,0,0,2.44-.56,4.11,4.11,0,0,0,1.59-1.5,3.8,3.8,0,0,0,.57-2V28.73a2,2,0,0,1-.75.34,11.83,11.83,0,0,1-1.16.27l-1.28.21-1.1.15a8.11,8.11,0,0,0-1.87.47,3.16,3.16,0,0,0-1.31.9,2.49,2.49,0,0,0,.47,3.43A4.1,4.1,0,0,0,131.62,35.16Zm18.29-23.43V38.19h-4.68V11.73ZM177.61,19a3.49,3.49,0,0,0-1.53-2.63,5.83,5.83,0,0,0-3.46-1,6.6,6.6,0,0,0-2.57.45,3.91,3.91,0,0,0-1.64,1.23,2.93,2.93,0,0,0-.58,1.77,2.71,2.71,0,0,0,.37,1.44,3.44,3.44,0,0,0,1.05,1,7,7,0,0,0,1.46.7,15.6,15.6,0,0,0,1.61.48l2.48.62a16.83,16.83,0,0,1,2.89.94,10.31,10.31,0,0,1,2.49,1.5,6.32,6.32,0,0,1,2.4,5.18,7.2,7.2,0,0,1-1.18,4.1A7.88,7.88,0,0,1,178,37.61a13.35,13.35,0,0,1-5.42,1,13.72,13.72,0,0,1-5.36-1,8,8,0,0,1-3.54-2.79,8.27,8.27,0,0,1-1.37-4.47H167a4,4,0,0,0,.85,2.3,4.61,4.61,0,0,0,1.95,1.37,7.74,7.74,0,0,0,2.71.45,7.38,7.38,0,0,0,2.74-.47,4.36,4.36,0,0,0,1.86-1.32,3.16,3.16,0,0,0,.69-2,2.51,2.51,0,0,0-.61-1.7,4.36,4.36,0,0,0-1.66-1.14,16.11,16.11,0,0,0-2.49-.83l-3-.77a12.12,12.12,0,0,1-5.17-2.55A5.84,5.84,0,0,1,163,19.17a6.85,6.85,0,0,1,1.26-4.1,8.34,8.34,0,0,1,3.48-2.72,12,12,0,0,1,5-1,11.55,11.55,0,0,1,4.94,1,8,8,0,0,1,3.35,2.7A6.82,6.82,0,0,1,182.22,19Zm18.59-.66V22H184.79V18.34Zm-8.59-4.75h4.68V32.22a3,3,0,0,0,.28,1.45,1.53,1.53,0,0,0,.78.67,3,3,0,0,0,1.06.18,4.92,4.92,0,0,0,.8-.06,4.48,4.48,0,0,0,.57-.12l.78,3.66a10.49,10.49,0,0,1-1.07.29,9.39,9.39,0,0,1-1.68.18,7.86,7.86,0,0,1-3.17-.53,5,5,0,0,1-2.23-1.84,5.48,5.48,0,0,1-.8-3.1Zm20.59,25a9.54,9.54,0,0,1-5-1.28,8.56,8.56,0,0,1-3.31-3.58,11.67,11.67,0,0,1-1.17-5.37A11.79,11.79,0,0,1,199.85,23a8.61,8.61,0,0,1,3.31-3.6,10.56,10.56,0,0,1,10.08,0,8.56,8.56,0,0,1,3.29,3.6,11.66,11.66,0,0,1,1.18,5.39,11.55,11.55,0,0,1-1.18,5.37,8.51,8.51,0,0,1-3.29,3.58A9.54,9.54,0,0,1,208.2,38.58Zm0-3.75a4,4,0,0,0,2.64-.86,5.27,5.27,0,0,0,1.58-2.35,10.48,10.48,0,0,0,0-6.58,5.28,5.28,0,0,0-1.58-2.37,4,4,0,0,0-2.64-.88,4.16,4.16,0,0,0-2.69.88A5.46,5.46,0,0,0,203.94,25a10.87,10.87,0,0,0,0,6.58A5.45,5.45,0,0,0,205.53,34,4.15,4.15,0,0,0,208.22,34.83Zm13.1,3.36V18.34h4.53v3.31h.21A5,5,0,0,1,227.92,19a5.12,5.12,0,0,1,3-.94c.26,0,.55,0,.86,0a4.35,4.35,0,0,1,.82.09v4.3a4.7,4.7,0,0,0-.95-.18,8.66,8.66,0,0,0-1.22-.09,4.72,4.72,0,0,0-2.3.56,3.92,3.92,0,0,0-1.59,1.51,4.22,4.22,0,0,0-.59,2.23V38.19Zm22,.39a10.15,10.15,0,0,1-5.15-1.24,8.3,8.3,0,0,1-3.32-3.54,11.8,11.8,0,0,1-1.17-5.42A11.73,11.73,0,0,1,234.88,23a8.72,8.72,0,0,1,3.28-3.62,9.19,9.19,0,0,1,5-1.31,9.91,9.91,0,0,1,3.46.6,7.85,7.85,0,0,1,2.9,1.81,8.63,8.63,0,0,1,2,3.13,12.55,12.55,0,0,1,.72,4.49v1.44H235.91V26.39H247.7a5.06,5.06,0,0,0-.59-2.39,4.1,4.1,0,0,0-1.59-1.66,4.4,4.4,0,0,0-2.35-.61,4.55,4.55,0,0,0-2.52.7A4.74,4.74,0,0,0,239,24.24a5.16,5.16,0,0,0-.61,2.44v2.75a6.32,6.32,0,0,0,.64,3,4.49,4.49,0,0,0,1.77,1.89,5.27,5.27,0,0,0,2.66.65,5.7,5.7,0,0,0,1.85-.29,3.91,3.91,0,0,0,1.43-.86,3.6,3.6,0,0,0,.92-1.41l4.37.49a6.81,6.81,0,0,1-1.58,3,7.59,7.59,0,0,1-2.95,2A11.13,11.13,0,0,1,243.35,38.58Z"/></svg>